<svg width="24" height="31" viewBox="0 0 24 31" fill="none" xmlns="http://www.w3.org/2000/svg">
<g clip-path="url(#clip0_90_358)">
<path d="M21.4286 3.5H2.57143C1.88944 3.5 1.23539 3.77092 0.753154 4.25315C0.270918 4.73539 0 5.38944 0 6.07143L0 24.9286C0 25.6106 0.270918 26.2646 0.753154 26.7468C1.23539 27.2291 1.88944 27.5 2.57143 27.5H9.92411V19.3405H6.54911V15.5H9.92411V12.5729C9.92411 9.24339 11.9063 7.40429 14.9421 7.40429C16.3961 7.40429 17.9164 7.66357 17.9164 7.66357V10.9314H16.2413C14.5907 10.9314 14.0759 11.9557 14.0759 13.0063V15.5H17.7605L17.1712 19.3405H14.0759V27.5H21.4286C22.1106 27.5 22.7646 27.2291 23.2468 26.7468C23.7291 26.2646 24 25.6106 24 24.9286V6.07143C24 5.38944 23.7291 4.73539 23.2468 4.25315C22.7646 3.77092 22.1106 3.5 21.4286 3.5Z" fill="white"/>
</g>
<defs>
<clipPath id="clip0_90_358">
<rect width="24" height="29.2101" fill="white" transform="translate(0 0.89502)"/>
</clipPath>
</defs>
</svg>
