<svg width="36" height="36" viewBox="0 0 36 36" fill="none" xmlns="http://www.w3.org/2000/svg">
<g clip-path="url(#clip0_273_4010)">
<path d="M35.6019 16.2803C33.0199 12.5193 27.6819 18.0543 17.9399 19.1793C14.3329 19.5953 11.0829 22.6073 6.89289 22.3203C5.17489 22.2023 2.77589 17.2593 0.97989 18.0473C0.0558902 18.4533 -0.36811 19.8083 0.58189 20.8263L11.1299 33.4123C11.1299 33.4123 11.6659 34.0303 13.4719 33.6023C13.9169 33.7333 20.6069 31.0523 24.4749 25.6853C25.4009 24.4003 26.5049 23.3303 27.6479 22.4363C31.3589 19.6923 35.3929 18.7363 35.3929 18.7363C35.9089 18.3103 36.0299 17.8573 36.0019 17.4643C36.0359 16.8083 35.6019 16.2803 35.6019 16.2803Z" fill="#5C913B"/>
<path d="M11.4758 10.2736C7.69281 15.5236 1.06781 18.0106 1.06781 18.0106C-0.168188 19.0576 0.875812 20.2916 0.875812 20.2916L11.3138 32.6506C11.3138 32.6506 11.8358 33.2676 13.5938 32.8396C13.5938 32.8396 20.2188 30.3576 24.0008 25.1076C27.8998 19.6976 34.9308 17.9896 34.9308 17.9896C36.1658 16.9426 35.1228 15.7066 35.1228 15.7066L24.6848 3.34961C24.6848 3.34961 24.1628 2.73161 22.4048 3.15761C22.4048 3.15761 15.3748 4.86161 11.4758 10.2736Z" fill="#A7D28B"/>
<path d="M22 19.5C25.0376 19.5 27.5 17.0376 27.5 14C27.5 10.9624 25.0376 8.5 22 8.5C18.9624 8.5 16.5 10.9624 16.5 14C16.5 17.0376 18.9624 19.5 22 19.5Z" fill="#77B255"/>
<path d="M12.8728 31.9294C11.9918 31.9294 11.6688 31.6014 11.6248 31.5514L2.21581 20.5684C2.19781 20.5474 1.72081 20.0014 1.77881 19.3074C1.81381 18.8864 2.03181 18.5114 2.42581 18.1924L2.48881 18.1544C2.54981 18.1304 8.65181 15.6224 12.0718 11.0894L12.2718 11.2394L12.0718 11.0894C15.6898 6.29335 21.9308 4.23535 21.9928 4.21535C23.7378 3.80935 24.3088 4.38935 24.3698 4.45735L33.6548 15.5014C33.6718 15.5194 34.1478 16.0674 34.0898 16.7624C34.0548 17.1824 33.8368 17.5574 33.4428 17.8764L33.3438 17.9254C33.2828 17.9404 27.2148 19.4484 23.6998 24.1064C20.2008 28.7464 14.0928 31.7484 14.0318 31.7774C13.5678 31.8874 13.1858 31.9294 12.8728 31.9294ZM12.0018 31.2224C12.0028 31.2224 12.4538 31.6383 13.8668 31.3104C13.8748 31.2994 19.8758 28.3484 23.3028 23.8064C26.7398 19.2514 32.5278 17.6244 33.1698 17.4554C33.4268 17.2344 33.5688 16.9894 33.5918 16.7264C33.6338 16.2464 33.2798 15.8334 33.2768 15.8294L23.9918 4.78435C23.9898 4.78435 23.5418 4.36935 22.1278 4.69735C22.0868 4.71135 15.9928 6.72335 12.4718 11.3904C9.10581 15.8514 3.23281 18.3854 2.71381 18.6034C2.44581 18.8284 2.29981 19.0794 2.27681 19.3484C2.23681 19.8244 2.58881 20.2354 2.59181 20.2394L12.0018 31.2224Z" fill="#5C913B"/>
<path d="M21.276 22.1657L21.27 28.1057L21.767 28.6957C22.736 27.8117 23.667 26.8177 24.472 25.6997C25.307 24.5417 26.277 23.5507 27.3 22.7137L26.817 22.1387L21.276 22.1657Z" fill="#FFAC33"/>
<path d="M26.7979 22.1177L14.2919 7.30469C13.2759 8.14069 12.2999 9.11569 11.4699 10.2687C10.6589 11.3947 9.71486 12.3857 8.73486 13.2597L10.1969 14.9907L10.1959 14.9917L21.2709 28.1057C22.2509 27.2307 23.1839 26.2297 23.9959 25.1027C24.8259 23.9507 25.8009 22.9767 26.8159 22.1407L26.7969 22.1177H26.7979Z" fill="#FFE8B6"/>
<path d="M14.4788 22.5547C12.9218 20.7107 9.62578 23.7027 8.68578 22.5897C8.23078 22.0507 8.52378 21.3517 9.12178 20.8477C10.1268 19.9977 10.8518 20.4927 11.3068 20.1077C11.6298 19.8357 11.6128 19.5027 11.4208 19.2737C10.9748 18.7467 9.83478 19.0217 8.94878 19.5337L8.51778 19.0237C8.24878 18.7057 7.77278 18.6647 7.45478 18.9337C7.13678 19.2037 7.09678 19.6777 7.36578 19.9957L7.81178 20.5247C7.13478 21.4227 6.90478 22.6147 7.70578 23.5617C9.20178 25.3317 12.5388 22.3897 13.5888 23.6337C13.9528 24.0657 13.8508 24.8897 13.0848 25.5357C11.9368 26.5067 10.8968 26.0517 10.4298 26.4457C10.2018 26.6367 10.1608 27.0007 10.4038 27.2897C10.7908 27.7467 12.0238 27.6487 13.2088 26.9107C13.2108 26.9127 13.2108 26.9147 13.2108 26.9167L13.6978 27.4927C13.9668 27.8107 14.4438 27.8497 14.7618 27.5827C15.0808 27.3127 15.1198 26.8367 14.8508 26.5187L14.3638 25.9427C14.3588 25.9367 14.3508 25.9327 14.3448 25.9267C15.1438 24.9487 15.4138 23.6597 14.4788 22.5547Z" fill="#5C913B"/>
<path d="M32.4561 32.5883C32.4651 32.5802 32.4751 32.5743 32.4841 32.5673C32.5521 32.4993 32.6051 32.4212 32.6651 32.3462C32.7071 32.2942 32.7541 32.2443 32.7931 32.1913C32.8281 32.1413 32.8571 32.0903 32.8891 32.0393C34.3091 29.8523 33.3791 26.1442 30.5681 23.3322C27.7561 20.5202 24.0471 19.5902 21.8611 21.0112C21.8091 21.0422 21.7581 21.0712 21.7081 21.1072C21.6551 21.1462 21.6041 21.1932 21.5541 21.2342C21.4801 21.2952 21.4021 21.3472 21.3331 21.4162C21.3241 21.4252 21.3181 21.4352 21.3111 21.4442C21.3001 21.4552 21.2871 21.4622 21.2751 21.4742L21.2811 21.4792C20.2811 22.5412 20.2691 24.1842 21.2751 25.1912C22.2831 26.1992 23.9251 26.1852 24.9881 25.1852L24.9991 25.1972C24.9781 25.2172 24.9551 25.2302 24.9351 25.2502C23.8761 26.3092 23.8511 27.9982 24.8761 29.0252C25.9021 30.0502 27.5931 30.0252 28.6511 28.9662C28.6711 28.9462 28.6841 28.9232 28.7041 28.9022L28.7151 28.9142C27.7151 29.9762 27.7021 31.6192 28.7101 32.6272C29.7171 33.6332 31.3591 33.6212 32.4211 32.6212L32.4271 32.6272C32.4371 32.6132 32.4451 32.6003 32.4561 32.5883Z" fill="#E1E8ED"/>
<path d="M21.277 25.2309C22.183 26.1359 23.598 26.2099 24.647 25.4919C25.086 24.7419 25.212 24.0289 25.212 23.8059C23.005 25.4519 21.035 23.8149 20.594 22.8359C20.411 23.6819 20.633 24.5859 21.277 25.2309ZM28.576 29.0709C28.874 28.6519 29.105 28.2469 29.213 27.9729C27.808 29.2609 25.122 28.3179 24.308 26.2749C23.95 27.2249 24.133 28.3189 24.879 29.0649C25.881 30.0669 27.513 30.0589 28.576 29.0709ZM32.43 32.6659L32.459 32.6299C32.469 32.6219 32.479 32.6159 32.487 32.6079C32.556 32.5399 32.609 32.4619 32.668 32.3879C32.711 32.3349 32.7571 32.2859 32.7961 32.2319C32.8321 32.1829 32.8611 32.1309 32.8931 32.0799C32.958 31.9799 32.993 31.8619 33.048 31.7559C30.52 32.8869 28.633 30.9679 28.104 30.0109C27.809 30.9279 28.001 31.9549 28.713 32.6679C29.719 33.6749 31.361 33.6629 32.424 32.6619L32.43 32.6659Z" fill="#CCD6DD"/>
<path d="M13.9561 12.4975L13.9841 12.4755C14.0531 12.4075 14.1061 12.3295 14.1651 12.2555C14.2071 12.2035 14.2531 12.1545 14.2921 12.1005C14.3281 12.0505 14.3571 11.9995 14.3891 11.9485C15.8091 9.76155 14.8781 6.05255 12.0671 3.24155C9.25506 0.429547 5.54706 -0.501453 3.36006 0.918547C3.30906 0.950547 3.25706 0.979547 3.20706 1.01555C3.15306 1.05455 3.10406 1.10055 3.05206 1.14255C2.97806 1.20255 2.90006 1.25455 2.83206 1.32355C2.82306 1.33255 2.81706 1.34355 2.81006 1.35155C2.79906 1.36155 2.78506 1.37055 2.77406 1.38155L2.77906 1.38655C1.77906 2.44855 1.76706 4.09155 2.77406 5.09855C3.78106 6.10555 5.42406 6.09355 6.48606 5.09355L6.49706 5.10455C6.47606 5.12355 6.45306 5.13755 6.43306 5.15755C5.37406 6.21655 5.34906 7.90555 6.37506 8.93255C7.40106 9.95955 9.09106 9.93355 10.1501 8.87455C10.1701 8.85455 10.1831 8.83155 10.2031 8.81055L10.2141 8.82155C9.21406 9.88355 9.20106 11.5265 10.2091 12.5335C11.2161 13.5405 12.8581 13.5285 13.9201 12.5275L13.9251 12.5335C13.9361 12.5225 13.9451 12.5095 13.9561 12.4975Z" fill="#E1E8ED"/>
<path d="M2.77314 5.10012C3.67914 6.00612 5.09414 6.08013 6.14314 5.36013C6.58214 4.61013 6.70714 3.89812 6.70714 3.67512C4.50114 5.32012 2.53014 3.68212 2.09014 2.70312C1.90714 3.55013 2.12914 4.45512 2.77314 5.10012ZM10.0741 8.93812C10.3711 8.51912 10.6021 8.11613 10.7091 7.84212C9.30314 9.13013 6.61714 8.18612 5.80414 6.14313C5.44614 7.09312 5.62914 8.18712 6.37414 8.93312C7.37814 9.93612 9.01114 9.92712 10.0741 8.93812ZM13.9251 12.5351C13.9361 12.5241 13.9451 12.5111 13.9551 12.4991L13.9831 12.4771C14.0521 12.4091 14.1051 12.3311 14.1641 12.2571C14.2061 12.2051 14.2521 12.1561 14.2911 12.1021C14.3271 12.0521 14.3561 12.0011 14.3881 11.9501C14.4531 11.8501 14.4881 11.7311 14.5431 11.6251C12.0151 12.7561 10.1281 10.8381 9.59914 9.88112C9.30414 10.7981 9.49614 11.8251 10.2081 12.5371C11.2151 13.5441 12.8571 13.5321 13.9191 12.5311L13.9251 12.5351Z" fill="#CCD6DD"/>
</g>
<defs>
<clipPath id="clip0_273_4010">
<rect width="36" height="36" fill="white"/>
</clipPath>
</defs>
</svg>
