<svg width="29" height="29" viewBox="0 0 29 29" fill="none" xmlns="http://www.w3.org/2000/svg">
<path d="M14.0087 10.6296C11.8052 10.6296 10.007 12.4279 10.007 14.6313C10.007 16.8348 11.8052 18.6331 14.0087 18.6331C16.2122 18.6331 18.0104 16.8348 18.0104 14.6313C18.0104 12.4279 16.2122 10.6296 14.0087 10.6296ZM26.0109 14.6313C26.0109 12.9742 26.0259 11.3321 25.9328 9.678C25.8397 7.7567 25.4014 6.05155 23.9965 4.6466C22.5885 3.23865 20.8864 2.80336 18.9651 2.71029C17.308 2.61723 15.6658 2.63224 14.0117 2.63224C12.3546 2.63224 10.7125 2.61723 9.05838 2.71029C7.13708 2.80336 5.43193 3.24165 4.02697 4.6466C2.61902 6.05455 2.18373 7.7567 2.09066 9.678C1.9976 11.3351 2.01261 12.9772 2.01261 14.6313C2.01261 16.2855 1.9976 17.9306 2.09066 19.5847C2.18373 21.506 2.62202 23.2111 4.02697 24.6161C5.43493 26.024 7.13708 26.4593 9.05838 26.5524C10.7155 26.6455 12.3576 26.6305 14.0117 26.6305C15.6689 26.6305 17.311 26.6455 18.9651 26.5524C20.8864 26.4593 22.5915 26.021 23.9965 24.6161C25.4044 23.2081 25.8397 21.506 25.9328 19.5847C26.0289 17.9306 26.0109 16.2885 26.0109 14.6313ZM14.0087 20.7885C10.6014 20.7885 7.85156 18.0386 7.85156 14.6313C7.85156 11.224 10.6014 8.47419 14.0087 8.47419C17.416 8.47419 20.1659 11.224 20.1659 14.6313C20.1659 18.0386 17.416 20.7885 14.0087 20.7885ZM20.4181 9.65999C19.6225 9.65999 18.9801 9.01755 18.9801 8.22202C18.9801 7.42648 19.6225 6.78405 20.4181 6.78405C21.2136 6.78405 21.856 7.42648 21.856 8.22202C21.8563 8.41092 21.8192 8.59802 21.7471 8.77259C21.6749 8.94715 21.569 9.10577 21.4354 9.23935C21.3018 9.37292 21.1432 9.47883 20.9686 9.55101C20.7941 9.62319 20.607 9.66023 20.4181 9.65999Z" fill="white"/>
</svg>
