<svg width="24" height="25" viewBox="0 0 24 25" fill="none" xmlns="http://www.w3.org/2000/svg">
<g clip-path="url(#clip0_90_354)">
<path d="M20 8.03125C19.4167 8.29167 18.7865 8.46875 18.1094 8.5625C18.8177 8.14583 19.3021 7.53646 19.5625 6.73438C18.8854 7.13021 18.1875 7.39583 17.4688 7.53125C16.8333 6.84375 16.0365 6.5 15.0781 6.5C14.1719 6.5 13.3984 6.82031 12.7578 7.46094C12.1172 8.10156 11.7969 8.875 11.7969 9.78125C11.7969 10.0833 11.8229 10.3333 11.875 10.5312C10.5312 10.4583 9.27083 10.1198 8.09375 9.51562C6.91667 8.91146 5.91667 8.10417 5.09375 7.09375C4.79167 7.61458 4.64062 8.16667 4.64062 8.75C4.64062 9.9375 5.11458 10.849 6.0625 11.4844C5.57292 11.474 5.05208 11.3385 4.5 11.0781V11.1094C4.5 11.8906 4.76042 12.5859 5.28125 13.1953C5.80208 13.8047 6.44271 14.1823 7.20312 14.3281C6.90104 14.4115 6.63542 14.4531 6.40625 14.4531C6.27083 14.4531 6.06771 14.4323 5.79688 14.3906C6.01562 15.0469 6.40365 15.5885 6.96094 16.0156C7.51823 16.4427 8.15104 16.6615 8.85938 16.6719C7.65104 17.6094 6.29167 18.0781 4.78125 18.0781C4.51042 18.0781 4.25 18.0625 4 18.0312C5.54167 19.0104 7.21875 19.5 9.03125 19.5C10.1979 19.5 11.2917 19.3151 12.3125 18.9453C13.3333 18.5755 14.2083 18.0807 14.9375 17.4609C15.6667 16.8411 16.2943 16.1276 16.8203 15.3203C17.3464 14.513 17.737 13.6693 17.9922 12.7891C18.2474 11.9089 18.375 11.0312 18.375 10.1562C18.375 9.96875 18.3698 9.82812 18.3594 9.73438C19.0156 9.26562 19.5625 8.69792 20 8.03125ZM24 5V20C24 21.2396 23.5599 22.2995 22.6797 23.1797C21.7995 24.0599 20.7396 24.5 19.5 24.5H4.5C3.26042 24.5 2.20052 24.0599 1.32031 23.1797C0.440104 22.2995 0 21.2396 0 20V5C0 3.76042 0.440104 2.70052 1.32031 1.82031C2.20052 0.940104 3.26042 0.5 4.5 0.5H19.5C20.7396 0.5 21.7995 0.940104 22.6797 1.82031C23.5599 2.70052 24 3.76042 24 5Z" fill="white"/>
</g>
<defs>
<clipPath id="clip0_90_354">
<rect width="24" height="24" fill="white" transform="translate(0 0.5)"/>
</clipPath>
</defs>
</svg>
