<svg width="36" height="36" viewBox="0 0 36 36" fill="none" xmlns="http://www.w3.org/2000/svg">
<path d="M2.1302 14.8555L2.1262 14.8535C2.1262 14.8535 0.0751953 27.2705 0.0751953 29.0605C0.0751953 30.8845 1.4182 32.3625 3.0752 32.3625C3.7552 32.3625 4.3752 32.1045 4.8782 31.6845L15.0442 22.7465L2.1302 14.8555ZM33.8202 14.8555L33.8242 14.8535C33.8242 14.8535 35.8752 27.2705 35.8752 29.0605C35.8752 30.8845 34.5322 32.3625 32.8752 32.3625C32.1952 32.3625 31.5752 32.1045 31.0722 31.6845L20.9062 22.7465L33.8202 14.8555Z" fill="#31373D" fill-opacity="0.5"/>
<path d="M25.9746 24.0508C30.669 24.0508 34.4746 20.2452 34.4746 15.5508C34.4746 10.8564 30.669 7.05078 25.9746 7.05078C21.2802 7.05078 17.4746 10.8564 17.4746 15.5508C17.4746 20.2452 21.2802 24.0508 25.9746 24.0508Z" fill="#14171A" fill-opacity="0.5"/>
<path d="M9.97461 24.0508C14.669 24.0508 18.4746 20.2452 18.4746 15.5508C18.4746 10.8564 14.669 7.05078 9.97461 7.05078C5.28019 7.05078 1.47461 10.8564 1.47461 15.5508C1.47461 20.2452 5.28019 24.0508 9.97461 24.0508Z" fill="#14171A" fill-opacity="0.5"/>
<path d="M9.97461 7.05078H25.9746V23.9208H9.97461V7.05078Z" fill="#14171A" fill-opacity="0.5"/>
<path d="M13.0752 28.3008C15.8366 28.3008 18.0752 26.0622 18.0752 23.3008C18.0752 20.5394 15.8366 18.3008 13.0752 18.3008C10.3138 18.3008 8.0752 20.5394 8.0752 23.3008C8.0752 26.0622 10.3138 28.3008 13.0752 28.3008Z" fill="#14171A" fill-opacity="0.5"/>
<path d="M22.875 28.3008C25.6364 28.3008 27.875 26.0622 27.875 23.3008C27.875 20.5394 25.6364 18.3008 22.875 18.3008C20.1136 18.3008 17.875 20.5394 17.875 23.3008C17.875 26.0622 20.1136 28.3008 22.875 28.3008Z" fill="#14171A" fill-opacity="0.5"/>
<path d="M22.875 26.3008C24.5319 26.3008 25.875 24.9576 25.875 23.3008C25.875 21.6439 24.5319 20.3008 22.875 20.3008C21.2181 20.3008 19.875 21.6439 19.875 23.3008C19.875 24.9576 21.2181 26.3008 22.875 26.3008Z" fill="#67757F" fill-opacity="0.5"/>
<path d="M13.0752 26.3008C14.732 26.3008 16.0752 24.9576 16.0752 23.3008C16.0752 21.6439 14.732 20.3008 13.0752 20.3008C11.4183 20.3008 10.0752 21.6439 10.0752 23.3008C10.0752 24.9576 11.4183 26.3008 13.0752 26.3008Z" fill="#67757F" fill-opacity="0.5"/>
<path d="M25.7348 12.7363C26.6201 12.7363 27.3378 12.0186 27.3378 11.1333C27.3378 10.248 26.6201 9.53027 25.7348 9.53027C24.8495 9.53027 24.1318 10.248 24.1318 11.1333C24.1318 12.0186 24.8495 12.7363 25.7348 12.7363Z" fill="#FFCC4D" fill-opacity="0.5"/>
<path d="M25.7348 19.2099C26.6201 19.2099 27.3378 18.4922 27.3378 17.6069C27.3378 16.7216 26.6201 16.0039 25.7348 16.0039C24.8495 16.0039 24.1318 16.7216 24.1318 17.6069C24.1318 18.4922 24.8495 19.2099 25.7348 19.2099Z" fill="#77B255" fill-opacity="0.5"/>
<path d="M22.4975 15.9726C23.3828 15.9726 24.1005 15.2549 24.1005 14.3696C24.1005 13.4843 23.3828 12.7666 22.4975 12.7666C21.6122 12.7666 20.8945 13.4843 20.8945 14.3696C20.8945 15.2549 21.6122 15.9726 22.4975 15.9726Z" fill="#50A5E6" fill-opacity="0.5"/>
<path d="M28.9721 15.9726C29.8575 15.9726 30.5751 15.2549 30.5751 14.3696C30.5751 13.4843 29.8575 12.7666 28.9721 12.7666C28.0868 12.7666 27.3691 13.4843 27.3691 14.3696C27.3691 15.2549 28.0868 15.9726 28.9721 15.9726Z" fill="#DD2E44" fill-opacity="0.5"/>
<path d="M11.148 12.5138V10.3458C11.148 10.0668 10.922 9.84082 10.643 9.84082H9.085C8.806 9.84082 8.58 10.0668 8.58 10.3458V12.5138L9.864 13.7988L11.148 12.5138ZM8.579 16.1438V18.3118C8.579 18.5908 8.805 18.8168 9.084 18.8168H10.642C10.921 18.8168 11.147 18.5908 11.147 18.3118V16.1438L9.863 14.8588L8.579 16.1438ZM13.848 13.0438H11.68L10.395 14.3288L11.68 15.6138H13.848C14.127 15.6138 14.353 15.3868 14.353 15.1088V13.5498C14.353 13.2708 14.127 13.0438 13.848 13.0438ZM8.049 13.0438H5.88C5.601 13.0438 5.375 13.2708 5.375 13.5488V15.1068C5.375 15.3858 5.601 15.6118 5.88 15.6118H8.048L9.333 14.3268L8.049 13.0438Z" fill="#8899A6" fill-opacity="0.5"/>
</svg>
