<svg width="40" height="40" viewBox="0 0 40 40" fill="none" xmlns="http://www.w3.org/2000/svg">
<path d="M5.92188 32.4844L14.3281 9.34374C14.4001 9.14572 14.5209 8.96911 14.6794 8.83031C14.8379 8.6915 15.029 8.59502 15.2347 8.54981C15.4405 8.5046 15.6544 8.51214 15.8565 8.57172C16.0585 8.6313 16.2423 8.741 16.3906 8.89062L31.1094 23.6094C31.259 23.7577 31.3687 23.9414 31.4283 24.1435C31.4879 24.3456 31.4954 24.5595 31.4502 24.7653C31.405 24.971 31.3085 25.1621 31.1697 25.3206C31.0309 25.4791 30.8543 25.5999 30.6563 25.6719L7.51563 34.0781C7.293 34.1632 7.0505 34.182 6.8174 34.1323C6.58431 34.0826 6.37059 33.9665 6.20206 33.7979C6.03352 33.6294 5.91739 33.4157 5.86767 33.1826C5.81795 32.9495 5.83678 32.707 5.92188 32.4844V32.4844Z" stroke="black" stroke-width="3" stroke-linecap="round" stroke-linejoin="round"/>
<path d="M26.25 11.25C26.25 11.25 26.25 7.5 30 7.5C33.75 7.5 33.75 3.75 33.75 3.75" stroke="black" stroke-width="3" stroke-linecap="round" stroke-linejoin="round"/>
<path d="M16 31L9 24" stroke="black" stroke-width="3" stroke-linecap="round" stroke-linejoin="round"/>
<path d="M22.5 2.5V6.25" stroke="black" stroke-width="3" stroke-linecap="round" stroke-linejoin="round"/>
<path d="M33.75 17.5L36.25 20" stroke="black" stroke-width="3" stroke-linecap="round" stroke-linejoin="round"/>
<path d="M33.75 12.5L37.5 11.25" stroke="black" stroke-width="3" stroke-linecap="round" stroke-linejoin="round"/>
<path d="M12 15.75L24.25 28" stroke="black" stroke-width="3" stroke-linecap="round" stroke-linejoin="round"/>
</svg>
