<svg width="36" height="36" viewBox="0 0 36 36" fill="none" xmlns="http://www.w3.org/2000/svg">
<path d="M35 30C35 31.104 34.104 32 33 32H3C1.896 32 1 31.104 1 30V6C1 4.896 1.896 4 3 4H33C34.104 4 35 4.896 35 6V30Z" fill="#D79E84" fill-opacity="0.5"/>
<path d="M33 4H3C1.896 4 1 4.896 1 6V30C1 30.389 1.116 30.748 1.307 31.055L34.637 4.857C34.276 4.34 33.679 4 33 4Z" fill="#BF6952" fill-opacity="0.5"/>
<path d="M31 22V9C31 8.448 30.553 8 30 8H6C5.448 8 5 8.448 5 9V22H31Z" fill="#8CCAF7" fill-opacity="0.5"/>
<path d="M6 28H19V21H5V27C5 27.553 5.448 28 6 28Z" fill="#5DADEC" fill-opacity="0.5"/>
<path d="M19 21V28H30C30.553 28 31 27.553 31 27V21H19Z" fill="#292F33" fill-opacity="0.5"/>
<path d="M19.9996 19C19.3866 19 19.1476 20.127 18.5946 21C18.2456 21.55 17.7726 22 16.9996 22C14.9996 22 14.9996 25 13.9996 25C12.7436 25 11.4876 26.578 10.7266 28H18.9996C19.8786 26.242 20.7606 24.486 22.9996 24.087C23.3066 24.032 23.6376 24 23.9996 24C26.9996 24 27.1056 22.447 27.9996 22C29.3576 21.321 30.2506 21.563 30.9996 21.789V19H19.9996Z" fill="#67757F" fill-opacity="0.5"/>
<path d="M25 11L21 15V19H29V15L25 11Z" fill="#E75A70" fill-opacity="0.5"/>
<path d="M29.0003 16.0002C28.7443 16.0002 28.4882 15.9022 28.2933 15.7072L25.0003 12.4142L21.7073 15.7072C21.3163 16.0982 20.6842 16.0982 20.2932 15.7072C19.9022 15.3162 19.9022 14.6842 20.2932 14.2933L24.2933 10.2932C24.6842 9.90225 25.3163 9.90225 25.7073 10.2932L29.7073 14.2933C30.0983 14.6842 30.0983 15.3162 29.7073 15.7072C29.5123 15.9022 29.2563 16.0002 29.0003 16.0002Z" fill="#292F33" fill-opacity="0.5"/>
<path d="M23 16H25V19H23V16Z" fill="#BB1A34" fill-opacity="0.5"/>
<path d="M17.219 14.125C17.219 13.089 16.38 12.25 15.344 12.25C15.265 12.25 15.189 12.264 15.112 12.273C15.14 12.144 15.156 12.012 15.156 11.875C15.156 10.839 14.317 10 13.281 10C12.613 10 12.03 10.352 11.698 10.878C11.49 10.798 11.267 10.75 11.031 10.75C10.079 10.75 9.301 11.463 9.18 12.382C8.969 12.299 8.741 12.25 8.5 12.25C7.464 12.25 6.625 13.089 6.625 14.125C6.625 15.161 7.464 16 8.5 16C8.541 16 8.58 15.99 8.621 15.988L8.625 16H15.375V15.997C16.396 15.98 17.219 15.15 17.219 14.125Z" fill="white" fill-opacity="0.5"/>
</svg>
