<svg width="37" height="36" viewBox="0 0 37 36" fill="none" xmlns="http://www.w3.org/2000/svg">
<g clip-path="url(#clip0_273_4054)">
<path d="M36.5 28C36.5 29.104 35.604 30 34.5 30H2.5C1.396 30 0.5 29.104 0.5 28V12C0.5 10.896 1.396 10 2.5 10H34.5C35.604 10 36.5 10.896 36.5 12V28Z" fill="#99AAB5" fill-opacity="0.5"/>
<path d="M6 19C6 19.553 5.552 20 5 20H4C3.448 20 3 19.553 3 19V18C3 17.447 3.448 17 4 17H5C5.552 17 6 17.447 6 18V19ZM10 19C10 19.553 9.552 20 9 20H8C7.448 20 7 19.553 7 19V18C7 17.447 7.448 17 8 17H9C9.552 17 10 17.447 10 18V19ZM14 19C14 19.553 13.552 20 13 20H12C11.448 20 11 19.553 11 19V18C11 17.447 11.448 17 12 17H13C13.552 17 14 17.447 14 18V19ZM18 19C18 19.553 17.552 20 17 20H16C15.448 20 15 19.553 15 19V18C15 17.447 15.448 17 16 17H17C17.552 17 18 17.447 18 18V19ZM22 19C22 19.553 21.553 20 21 20H20C19.447 20 19 19.553 19 19V18C19 17.447 19.447 17 20 17H21C21.553 17 22 17.447 22 18V19ZM26 19C26 19.553 25.553 20 25 20H24C23.447 20 23 19.553 23 19V18C23 17.447 23.447 17 24 17H25C25.553 17 26 17.447 26 18V19ZM30 19C30 19.553 29.553 20 29 20H28C27.447 20 27 19.553 27 19V18C27 17.447 27.447 17 28 17H29C29.553 17 30 17.447 30 18V19ZM34 19C34 19.553 33.553 20 33 20H32C31.447 20 31 19.553 31 19V18C31 17.447 31.447 17 32 17H33C33.553 17 34 17.447 34 18V19ZM8 23C8 23.553 7.552 24 7 24H6C5.448 24 5 23.553 5 23V22C5 21.447 5.448 21 6 21H7C7.552 21 8 21.447 8 22V23ZM12 23C12 23.553 11.552 24 11 24H10C9.448 24 9 23.553 9 23V22C9 21.447 9.448 21 10 21H11C11.552 21 12 21.447 12 22V23ZM16 23C16 23.553 15.552 24 15 24H14C13.448 24 13 23.553 13 23V22C13 21.447 13.448 21 14 21H15C15.552 21 16 21.447 16 22V23ZM20 23C20 23.553 19.553 24 19 24H18C17.448 24 17 23.553 17 23V22C17 21.447 17.448 21 18 21H19C19.553 21 20 21.447 20 22V23ZM24 23C24 23.553 23.553 24 23 24H22C21.447 24 21 23.553 21 23V22C21 21.447 21.447 21 22 21H23C23.553 21 24 21.447 24 22V23ZM28 23C28 23.553 27.553 24 27 24H26C25.447 24 25 23.553 25 23V22C25 21.447 25.447 21 26 21H27C27.553 21 28 21.447 28 22V23ZM32 23C32 23.553 31.553 24 31 24H30C29.447 24 29 23.553 29 23V22C29 21.447 29.447 21 30 21H31C31.553 21 32 21.447 32 22V23ZM10.5 27C10.5 27.553 10.052 28 9.5 28H7.5C6.948 28 6.5 27.553 6.5 27V26C6.5 25.447 6.948 25 7.5 25H9.5C10.052 25 10.5 25.447 10.5 26V27ZM30.5 27C30.5 27.553 30.053 28 29.5 28H27.5C26.947 28 26.5 27.553 26.5 27V26C26.5 25.447 26.947 25 27.5 25H29.5C30.053 25 30.5 25.447 30.5 26V27ZM25.5 27C25.5 27.553 25.053 28 24.5 28H12.5C11.948 28 11.5 27.553 11.5 27V26C11.5 25.447 11.948 25 12.5 25H24.5C25.053 25 25.5 25.447 25.5 26V27ZM6 13.083C6 13.635 5.552 14.083 5 14.083H4C3.448 14.083 3 13.635 3 13.083C3 12.531 3.448 12.083 4 12.083H5C5.552 12.083 6 12.531 6 13.083ZM10 13.083C10 13.635 9.552 14.083 9 14.083H8C7.448 14.083 7 13.635 7 13.083C7 12.531 7.448 12.083 8 12.083H9C9.552 12.083 10 12.531 10 13.083ZM14 13.083C14 13.635 13.552 14.083 13 14.083H12C11.448 14.083 11 13.635 11 13.083C11 12.531 11.448 12.083 12 12.083H13C13.552 12.083 14 12.531 14 13.083ZM18 13.083C18 13.635 17.552 14.083 17 14.083H16C15.448 14.083 15 13.635 15 13.083C15 12.531 15.448 12.083 16 12.083H17C17.552 12.083 18 12.531 18 13.083ZM22 13.083C22 13.635 21.553 14.083 21 14.083H20C19.447 14.083 19 13.635 19 13.083C19 12.531 19.447 12.083 20 12.083H21C21.553 12.083 22 12.531 22 13.083ZM26 13.083C26 13.635 25.553 14.083 25 14.083H24C23.447 14.083 23 13.635 23 13.083C23 12.531 23.447 12.083 24 12.083H25C25.553 12.083 26 12.531 26 13.083ZM30 13.083C30 13.635 29.553 14.083 29 14.083H28C27.447 14.083 27 13.635 27 13.083C27 12.531 27.447 12.083 28 12.083H29C29.553 12.083 30 12.531 30 13.083ZM34 13.083C34 13.635 33.553 14.083 33 14.083H32C31.447 14.083 31 13.635 31 13.083C31 12.531 31.447 12.083 32 12.083H33C33.553 12.083 34 12.531 34 13.083Z" fill="#292F33" fill-opacity="0.5"/>
</g>
<defs>
<clipPath id="clip0_273_4054">
<rect width="36" height="36" fill="white" transform="translate(0.5)"/>
</clipPath>
</defs>
</svg>
