<svg width="37" height="33" viewBox="0 0 37 33" fill="none" xmlns="http://www.w3.org/2000/svg">
<path fill-rule="evenodd" clip-rule="evenodd" d="M18.5 0C18.946 0 19.3739 0.158035 19.6892 0.439339C20.0046 0.720645 20.1818 1.10218 20.1818 1.5V3C20.1818 3.39783 20.0046 3.77935 19.6892 4.06066C19.3739 4.34196 18.946 4.5 18.5 4.5C18.054 4.5 17.6261 4.34196 17.3108 4.06066C16.9954 3.77935 16.8182 3.39783 16.8182 3V1.5C16.8182 1.10218 16.9954 0.720645 17.3108 0.439339C17.6261 0.158035 18.054 0 18.5 0ZM3.85641 3.4395C4.1718 3.15829 4.5995 3.00032 5.04545 3.00032C5.49141 3.00032 5.91911 3.15829 6.2345 3.4395L8.75723 5.6895C9.06359 5.9724 9.2331 6.3513 9.22926 6.7446C9.22545 7.1379 9.04857 7.51411 8.73674 7.79223C8.42492 8.07034 8.0031 8.2281 7.56213 8.2315C7.12115 8.23492 6.69633 8.08374 6.37914 7.8105L3.85641 5.5605C3.54112 5.27921 3.36399 4.89774 3.36399 4.5C3.36399 4.10226 3.54112 3.72079 3.85641 3.4395ZM33.1436 3.4395C33.4589 3.72079 33.636 4.10226 33.636 4.5C33.636 4.89774 33.4589 5.27921 33.1436 5.5605L30.6209 7.8105C30.4658 7.95376 30.2801 8.06803 30.0749 8.14665C29.8698 8.22526 29.6491 8.26665 29.4258 8.26837C29.2024 8.2701 28.9809 8.23215 28.7742 8.15673C28.5677 8.08131 28.3798 7.96993 28.2219 7.8291C28.064 7.68825 27.9392 7.52078 27.8546 7.33643C27.77 7.15209 27.7275 6.95457 27.7293 6.7554C27.7313 6.55623 27.7777 6.3594 27.8659 6.1764C27.954 5.99338 28.0822 5.82787 28.2428 5.6895L30.7655 3.4395C31.0808 3.15829 31.5085 3.00032 31.9545 3.00032C32.4006 3.00032 32.8283 3.15829 33.1436 3.4395ZM0 16.5C0 16.1022 0.177191 15.7206 0.492593 15.4394C0.807996 15.1581 1.23577 15 1.68182 15H3.36364C3.80969 15 4.23746 15.1581 4.55287 15.4394C4.86826 15.7206 5.04545 16.1022 5.04545 16.5C5.04545 16.8978 4.86826 17.2794 4.55287 17.5606C4.23746 17.8419 3.80969 18 3.36364 18H1.68182C1.23577 18 0.807996 17.8419 0.492593 17.5606C0.177191 17.2794 0 16.8978 0 16.5ZM31.9545 16.5C31.9545 16.1022 32.1318 15.7206 32.4471 15.4394C32.7625 15.1581 33.1903 15 33.6364 15H35.3182C35.7642 15 36.1921 15.1581 36.5074 15.4394C36.8227 15.7206 37 16.1022 37 16.5C37 16.8978 36.8227 17.2794 36.5074 17.5606C36.1921 17.8419 35.7642 18 35.3182 18H33.6364C33.1903 18 32.7625 17.8419 32.4471 17.5606C32.1318 17.2794 31.9545 16.8978 31.9545 16.5ZM8.75723 25.1895C9.07252 25.4707 9.24965 25.8522 9.24965 26.25C9.24965 26.6478 9.07252 27.0293 8.75723 27.3105L6.2345 29.5605C5.91731 29.8338 5.49248 29.985 5.05151 29.9815C4.61054 29.9781 4.18872 29.8203 3.87689 29.5422C3.56507 29.2641 3.38819 28.8879 3.38437 28.4946C3.38054 28.1013 3.55005 27.7224 3.85641 27.4395L6.37914 25.1895C6.69453 24.9082 7.12223 24.7503 7.56818 24.7503C8.01413 24.7503 8.44184 24.9082 8.75723 25.1895ZM28.2428 25.1895C28.5581 24.9082 28.9858 24.7503 29.4318 24.7503C29.8778 24.7503 30.3055 24.9082 30.6209 25.1895L33.1436 27.4395C33.45 27.7224 33.6195 28.1013 33.6157 28.4946C33.6118 28.8879 33.4349 29.2641 33.1231 29.5422C32.8113 29.8203 32.3895 29.9781 31.9485 29.9815C31.5075 29.985 31.0827 29.8338 30.7655 29.5605L28.2428 27.3105C27.9274 27.0293 27.7503 26.6478 27.7503 26.25C27.7503 25.8522 27.9274 25.4707 28.2428 25.1895ZM18.5 28.5C18.946 28.5 19.3739 28.6581 19.6892 28.9394C20.0046 29.2206 20.1818 29.6022 20.1818 30V31.5C20.1818 31.8978 20.0046 32.2794 19.6892 32.5606C19.3739 32.8419 18.946 33 18.5 33C18.054 33 17.6261 32.8419 17.3108 32.5606C16.9954 32.2794 16.8182 31.8978 16.8182 31.5V30C16.8182 29.6022 16.9954 29.2206 17.3108 28.9394C17.6261 28.6581 18.054 28.5 18.5 28.5Z" fill="#151515"/>
<path d="M18.5 7.8158C15.5082 7.8158 12.639 8.77648 10.5235 10.4865C8.40799 12.1966 7.21951 14.5159 7.21951 16.9342C7.21951 19.3526 8.40799 21.6719 10.5235 23.3819C12.639 25.092 15.5082 26.0526 18.5 26.0526C21.4918 26.0526 24.361 25.092 26.4765 23.3819C28.592 21.6719 29.7805 19.3526 29.7805 16.9342C29.7805 14.5159 28.592 12.1966 26.4765 10.4865C24.361 8.77648 21.4918 7.8158 18.5 7.8158Z" fill="#151515"/>
</svg>
