<svg width="40" height="31" viewBox="0 0 40 31" fill="none" xmlns="http://www.w3.org/2000/svg">
<path d="M35.5313 8.38967C35.3364 7.6637 34.9542 7.00166 34.423 6.46981C33.8918 5.93795 33.2303 5.55494 32.5045 5.3591C29.8332 4.64063 19.1249 4.64062 19.1249 4.64062C19.1249 4.64062 8.41665 4.64062 5.74531 5.35527C5.01927 5.55048 4.35738 5.93328 3.82609 6.46524C3.29481 6.99719 2.91285 7.65957 2.71856 8.38585C2.00391 11.061 2.00391 16.6406 2.00391 16.6406C2.00391 16.6406 2.00391 22.2202 2.71856 24.8916C3.11219 26.3667 4.27397 27.5285 5.74531 27.9222C8.41665 28.6406 19.1249 28.6406 19.1249 28.6406C19.1249 28.6406 29.8332 28.6406 32.5045 27.9222C33.9797 27.5285 35.1377 26.3667 35.5313 24.8916C36.2459 22.2202 36.2459 16.6406 36.2459 16.6406C36.2459 16.6406 36.2459 11.061 35.5313 8.38967ZM15.7237 21.7616V11.5196L24.5899 16.6024L15.7237 21.7616Z" fill="white"/>
</svg>
